<?xml version="1.0" encoding="utf-8"?>
<!-- Generator: Adobe Illustrator 22.0.1, SVG Export Plug-In . SVG Version: 6.00 Build 0)  -->
<svg version="1.1" id="Layer_1" xmlns="http://www.w3.org/2000/svg" xmlns:xlink="http://www.w3.org/1999/xlink" x="0px" y="0px"
	 viewBox="0 0 512 512" style="enable-background:new 0 0 512 512;" xml:space="preserve">
<style type="text/css">
	.st0{fill:#D3D3D3;}
</style>
<g>
	<g>
		<path class="st0" d="M405,344.1c-26.7,0-50.6,12.6-66,32.1l-154.1-89c3.9-9.7,6-20.2,6-31.2c0-11-2.2-21.6-6-31.2l154.1-89
			c15.4,19.5,39.2,32.1,66,32.1c46.3,0,84-37.7,84-84c0-46.3-37.7-84-84-84s-84,37.7-84,84c0,11,2.2,21.6,6.1,31.2l-154.1,89
			c-15.4-19.5-39.2-32.1-66-32.1c-46.3,0-84,37.7-84,84s37.7,84,84,84c26.7,0,50.6-12.6,66-32.1l154.1,89
			c-3.9,9.7-6.1,20.2-6.1,31.2c0,46.3,37.7,84,84,84s84-37.7,84-84S451.3,344.1,405,344.1z M405,23.8c33.2,0,60.2,27,60.2,60.2
			c0,33.2-27,60.2-60.2,60.2c-33.2,0-60.2-27-60.2-60.2C344.8,50.8,371.8,23.8,405,23.8z M107,316.2c-33.2,0-60.2-27-60.2-60.2
			s27-60.2,60.2-60.2c33.2,0,60.2,27,60.2,60.2S140.2,316.2,107,316.2z M405,488.2c-33.2,0-60.2-27-60.2-60.2
			c0-33.2,27-60.2,60.2-60.2c33.2,0,60.2,27,60.2,60.2S438.2,488.2,405,488.2z"/>
	</g>
</g>
<g>
	<g>
		<path class="st0" d="M107,220.6c-19.5,0-35.4,15.9-35.4,35.4c0,6.6,5.3,11.9,11.9,11.9s11.9-5.3,11.9-11.9
			c0-6.4,5.2-11.6,11.6-11.6c6.6,0,11.9-5.3,11.9-11.9C118.9,225.9,113.6,220.6,107,220.6z"/>
	</g>
</g>
</svg>
